<?xml version="1.0" encoding="iso-8859-1"?>
<!-- Uploaded to: SVG Repo, www.svgrepo.com, Generator: SVG Repo Mixer Tools -->
<svg height="800px" width="800px" version="1.1" id="Layer_1" xmlns="http://www.w3.org/2000/svg" xmlns:xlink="http://www.w3.org/1999/xlink" 
	 viewBox="0 0 512.014 512.014" xml:space="preserve">
<circle style="fill:#BF4F44;" cx="256.007" cy="256.007" r="256.007"/>
<path style="fill:#9B2823;" d="M500.603,331.743L390.958,222.097l-28.326,63.601l-97.616-97.616l-114.293-10.331l-43.801,43.801
	l10.999,10.999l-9.408,9.408l14.865,103.377l163.829,164.765C388.34,497.808,471.277,426.557,500.603,331.743z"/>
<g>
	<path style="fill:#BF4F44;" d="M89.128,267.458c-0.908,44.046,29.43,86.08,71.163,99.789
		c39.309,13.207,87.642,3.326,113.798-30.337c19.098-23.588,23.438-55.035,21.37-84.415c-33.665-0.3-67.329-0.201-100.944-0.151
		c-0.056,11.993,0,23.94,0.05,35.933c20.158,0.558,40.318,0.3,60.474,0.707c-5.089,17.438-16.679,33.665-34.271,39.962
		c-33.965,14.968-77.304-4.587-87.992-40.218c-12.901-34.122,8.219-75.296,43.089-85.222c21.622-7.607,43.896,0.959,62.395,12.198
		c9.374-8.771,18.145-18.145,26.759-27.617c-21.019-17.587-48.03-28.371-75.798-26.002
		C134.741,162.733,87.061,213.031,89.128,267.458z"/>
	<path style="fill:#BF4F44;" d="M360.977,222.097c-0.101,10.03-0.205,20.111-0.255,30.137c-10.081,0.101-20.107,0.151-30.137,0.201
		c0,10.03,0,20.006,0,30.037c10.03,0.05,20.111,0.101,30.137,0.205c0.101,10.03,0.101,20.057,0.201,30.137
		c9.98,0,20.01-0.05,30.037,0c0.056-10.081,0.101-20.107,0.205-30.188c10.027-0.05,20.107-0.101,30.137-0.151
		c0-10.03,0-20.006,0-30.037c-10.027-0.05-20.107-0.101-30.137-0.201c-0.056-10.03-0.151-20.111-0.205-30.137
		C380.933,222.097,370.953,222.097,360.977,222.097z"/>
</g>
<g>
	<path style="fill:#FFFFFF;" d="M89.128,267.458c-2.067-54.428,45.607-104.727,100.089-105.38
		c27.768-2.369,54.784,8.415,75.798,26.002c-8.62,9.478-17.391,18.846-26.759,27.617c-18.501-11.239-40.774-19.805-62.395-12.198
		c-34.874,9.929-55.993,51.106-43.089,85.222c10.688,35.631,54.027,55.186,87.992,40.218c17.587-6.298,29.184-22.525,34.271-39.962
		c-20.158-0.401-40.318-0.151-60.474-0.707c-0.05-11.993-0.101-23.94-0.05-35.933c33.614-0.05,67.279-0.151,100.944,0.151
		c2.067,29.383-2.268,60.83-21.37,84.415c-26.158,33.665-74.485,43.544-113.798,30.337
		C118.562,353.538,88.22,311.505,89.128,267.458z"/>
	<path style="fill:#FFFFFF;" d="M360.977,222.097c9.98,0,19.956,0,29.981,0c0.056,10.03,0.151,20.111,0.205,30.137
		c10.027,0.101,20.107,0.151,30.137,0.201c0,10.03,0,20.006,0,30.037c-10.027,0.05-20.107,0.101-30.137,0.151
		c-0.101,10.081-0.151,20.107-0.205,30.188c-10.027-0.05-20.06,0-30.037,0c-0.096-10.08-0.096-20.107-0.201-30.137
		c-10.027-0.104-20.107-0.151-30.137-0.205c0-10.03,0-20.006,0-30.037c10.03-0.05,20.06-0.101,30.137-0.201
		C360.772,242.21,360.873,232.127,360.977,222.097z"/>
</g>
</svg>